<svg width="53" height="47" viewBox="0 0 53 47" fill="none" xmlns="http://www.w3.org/2000/svg">
<path d="M42.6034 46.8613H10.3252C4.46681 46.8613 -0.288086 42.0865 -0.288086 36.2036V10.5859C-0.288086 4.70299 4.46681 -0.0718079 10.3252 -0.0718079H42.6034C48.4618 -0.0718079 53.2167 4.70299 53.2167 10.5859V36.2199C53.2167 42.0865 48.4618 46.8613 42.6034 46.8613Z" fill="#FFDE32"/>
<path d="M33.0371 24.5243C32.9616 24.6018 32.6762 24.933 32.4104 25.2055C30.8521 26.9191 26.7869 29.7239 24.6592 30.5801C24.3361 30.7176 23.5191 31.0088 23.0827 31.0275C22.6644 31.0275 22.2657 30.9313 21.8853 30.7363C21.411 30.4639 21.0305 30.0351 20.8221 29.5289C20.6878 29.1776 20.4794 28.1265 20.4794 28.1078C20.2709 26.9578 20.1562 25.0893 20.1562 23.0244C20.1562 21.0571 20.2709 19.2646 20.4416 18.0973C20.4611 18.0786 20.6696 16.7724 20.8976 16.3249C21.3159 15.5075 22.1328 15 23.0071 15L23.0827 15C23.652 15.02 24.8494 15.5276 24.8494 15.5463C26.8625 16.4037 30.8339 19.071 32.43 20.8434C32.43 20.8434 32.8795 21.2988 33.0749 21.5833C33.3798 21.992 33.5309 22.4982 33.5309 23.0044C33.5309 23.5694 33.3603 24.0956 33.0371 24.5243Z" fill="white"/>
</svg>
