<svg width="53" height="47" viewBox="0 0 53 47" fill="none" xmlns="http://www.w3.org/2000/svg">
<path d="M42.6029 46.8613H10.3247C4.46632 46.8613 -0.288574 42.0865 -0.288574 36.2036V10.5859C-0.288574 4.70299 4.46632 -0.0718079 10.3247 -0.0718079H42.6029C48.4613 -0.0718079 53.2162 4.70299 53.2162 10.5859V36.2199C53.2162 42.0865 48.4613 46.8613 42.6029 46.8613Z" fill="#FFDE32"/>
<path d="M20.6504 21.5031C20.7259 21.4257 21.0113 21.0944 21.2771 20.822C22.8354 19.1084 26.9006 16.3036 29.0283 15.4474C29.3514 15.3099 30.1684 15.0187 30.6048 15C31.0231 15 31.4218 15.0962 31.8022 15.2912C32.2765 15.5636 32.657 15.9924 32.8654 16.4986C32.9996 16.8498 33.2081 17.901 33.2081 17.9197C33.4166 19.0696 33.5312 20.9382 33.5312 23.0031C33.5312 24.9704 33.4166 26.7628 33.2459 27.9302C33.2264 27.9489 33.0179 29.2551 32.7899 29.7025C32.3716 30.5199 31.5547 31.0275 30.6804 31.0275L30.6048 31.0275C30.0355 31.0075 28.8381 30.4999 28.8381 30.4812C26.825 29.6237 22.8536 26.9565 21.2575 25.1841C21.2575 25.1841 20.808 24.7287 20.6126 24.4442C20.3077 24.0355 20.1566 23.5293 20.1566 23.0231C20.1566 22.4581 20.3272 21.9319 20.6504 21.5031" fill="white"/>
</svg>
